# xmcd
#
# Track frame offsets:
#	150
#	14150
#	28435
#	41055
#	54317
#	70587
#	83187
#	97042
#	110467
#	122305
#	136322
#	149167
#	162625
#	174542
#	187477
#	201857
#	217420
#	230037
#	244312
#	258747
#	272550
#	284842
#	296467
#
# Disc length: 4133 seconds
#
# Revision: 2
# Processed by: cddbd v1.4PL0 Copyright (c) Steve Scherf et al.
# Submitted via: audiograbber 1.81.00
#
DISCID=85102317
DTITLE=Julio Sosa - Todo Sosa...De FM Tango para Usted [CD1]
DYEAR=1991
DGENRE=Tango
TTITLE0=La cumparsita
TTITLE1=Recordándote
TTITLE2=Canchero
TTITLE3=Si no me engaña el corazón
TTITLE4=Tarde
TTITLE5=Amor en remolino
TTITLE6=Tabaco
TTITLE7=No nos veremos más
TTITLE8=As de cartón
TTITLE9=Mala suerte
TTITLE10=Monserga
TTITLE11=Secreto
TTITLE12=Amurado
TTITLE13=Que me quiten lo bailado
TTITLE14=Dicha pasada
TTITLE15=Milonga en rojo
TTITLE16=Ccachadora
TTITLE17=Destellos
TTITLE18=En la madrugada
TTITLE19=Margot
TTITLE20=Total pa' que sirvo
TTITLE21=Araca corazón
TTITLE22=Viejo rincón
EXTD=
EXTT0=
EXTT1=
EXTT2=
EXTT3=
EXTT4=
EXTT5=
EXTT6=
EXTT7=
EXTT8=
EXTT9=
EXTT10=
EXTT11=
EXTT12=
EXTT13=
EXTT14=
EXTT15=
EXTT16=
EXTT17=
EXTT18=
EXTT19=
EXTT20=
EXTT21=
EXTT22=
PLAYORDER=
